<svg viewBox="0 0 25 25" width="24" height="25" xmlns="http://www.w3.org/2000/svg"><path d="M12.183 0c.534 0 1.072.012 1.608.04l-.001 15.027a1.787 1.787 0 0 0 0 3.421v6.188a4.39 4.39 0 0 1-1.607.324c-.593 0-1.19-.14-1.786-.398V13.341a1.786 1.786 0 0 0 0-3.394V.054l.294-.018C11.19.01 11.688 0 12.183 0Zm2.678.123-.013-.001c1.19.116 2.348.323 3.408.662l-.002 3.997a1.787 1.787 0 0 0 0 3.421v12.543c-1.055 1.421-2.208 2.601-3.393 3.355l.001-5.626a1.786 1.786 0 0 0 0-3.393L14.861.123ZM9.325.14v9.793a1.787 1.787 0 0 0 0 3.421v10.659c-1.363-.907-2.681-2.371-3.852-4.109C2.87 16.04 1 10.822 1 7.371c0-3.452 1.87-5.36 4.473-6.365C6.643.554 7.962.285 9.325.14ZM23.32 7.37c0 3.237-1.644 8.027-3.995 11.797V8.188a1.786 1.786 0 0 0 0-3.393V1.189c2.35 1.044 3.995 2.922 3.995 6.182Z" fill="#312E81"/></svg>
