<svg xmlns="http://www.w3.org/2000/svg" width="159" height="25"><defs><clipPath id="a"><path d="M159 0v25H0V0h159Z"/></clipPath><clipPath id="b"><path d="M8.958 0c2.88 0 4.32 1.311 4.32 3.933v4.371H8.682V4.41c0-.424-.08-.708-.238-.854-.159-.146-.45-.219-.872-.219H5.708c-.423 0-.714.073-.872.219-.159.146-.238.43-.238.854V20.7c0 .424.08.709.238.855.158.145.45.218.872.218h1.863c.423 0 .713-.073.872-.218.159-.146.238-.43.238-.855v-3.814h4.598v4.291c0 2.623-1.44 3.934-4.32 3.934H4.32C1.44 25.11 0 23.8 0 21.177V3.933C0 1.311 1.44 0 4.32 0h4.638Z"/></clipPath><clipPath id="c"><path d="M4.558 0v10.887h5.153V0h4.559v25.071H9.71V14.383H4.558v10.688H0V0h4.558Z"/></clipPath><clipPath id="d"><path d="M9.157 0c2.88 0 4.32 1.311 4.32 3.933v17.204c0 2.623-1.44 3.934-4.32 3.934H4.32C1.44 25.071 0 23.76 0 21.137V3.933C0 1.311 1.44 0 4.32 0h4.837ZM7.809 3.496H5.708c-.45 0-.753.073-.912.219-.158.146-.238.43-.238.854v15.933c0 .424.08.708.238.854.159.146.463.219.912.219h2.1c.424 0 .714-.073.873-.219.158-.146.238-.43.238-.854V4.569c0-.424-.08-.708-.238-.854-.159-.146-.45-.219-.872-.219Z"/></clipPath><clipPath id="e"><path d="M9.196 0c2.88 0 4.32 1.311 4.32 3.933v7.43c0 2.172-.964 3.444-2.893 3.815l4.162 9.893H9.87l-3.805-9.774H4.558v9.774H0V0h9.196ZM7.848 3.496h-3.29v8.424h3.29c.423 0 .714-.073.873-.219.158-.146.237-.43.237-.854V4.569c0-.424-.079-.708-.237-.854-.16-.146-.45-.219-.873-.219Z"/></clipPath><clipPath id="f"><path d="M9.513 0c2.88 0 4.32 1.311 4.32 3.933v17.204c0 2.623-1.44 3.934-4.32 3.934H0V0h9.513ZM8.126 3.337H4.558v18.396h3.568c.423 0 .713-.072.872-.218.159-.146.238-.43.238-.854V4.41c0-.425-.08-.71-.238-.855-.159-.146-.45-.219-.872-.219Z"/></clipPath><clipPath id="g"><path d="M9.513 0c2.88 0 4.32 1.311 4.32 3.933v5.404c0 1.669-.554 2.689-1.664 3.06 1.11.37 1.665 1.324 1.665 2.86v5.88c0 2.623-1.44 3.934-4.32 3.934H0V0h9.513ZM8.166 14.065H4.558v7.668h3.608c.449 0 .753-.072.911-.218.159-.146.238-.43.238-.854v-5.523c0-.424-.08-.709-.238-.854-.158-.146-.462-.219-.911-.219Zm0-10.727H4.558v7.39h3.608c.449 0 .753-.073.911-.219.159-.146.238-.43.238-.854V4.41c0-.424-.08-.708-.238-.854-.158-.146-.462-.219-.911-.219Z"/></clipPath><clipPath id="h"><path d="M9.157 0c2.88 0 4.32 1.311 4.32 3.933v17.204c0 2.623-1.44 3.934-4.32 3.934H4.32C1.44 25.071 0 23.76 0 21.137V3.933C0 1.311 1.44 0 4.32 0h4.837ZM7.809 3.496H5.708c-.45 0-.753.073-.912.219-.158.146-.238.43-.238.854v15.933c0 .424.08.708.238.854.159.146.463.219.912.219h2.1c.424 0 .714-.073.873-.219.158-.146.238-.43.238-.854V4.569c0-.424-.08-.708-.238-.854-.159-.146-.45-.219-.872-.219Z"/></clipPath><clipPath id="i"><path d="M9.157 0c2.88 0 4.32 1.311 4.32 3.933v17.204c0 2.623-1.44 3.934-4.32 3.934H4.32C1.44 25.071 0 23.76 0 21.137V3.933C0 1.311 1.44 0 4.32 0h4.837ZM7.809 3.496H5.708c-.45 0-.753.073-.912.219-.158.146-.238.43-.238.854v15.933c0 .424.08.708.238.854.159.146.463.219.912.219h2.1c.424 0 .714-.073.873-.219.158-.146.238-.43.238-.854V4.569c0-.424-.08-.708-.238-.854-.159-.146-.45-.219-.872-.219Z"/></clipPath><clipPath id="j"><path d="M14.666 0 9.513 12.476l5.114 12.595H9.71L4.757 12.476 9.75 0h4.915ZM4.558 0v25.071H0V0h4.558Z"/></clipPath></defs><g clip-path="url(#a)"><g clip-path="url(#b)" transform="translate(-.077 -.071)"><path fill="#302E81" d="M.077.071H13.28v25H.077v-25z"/></g><g clip-path="url(#c)" transform="translate(16.413 -.071)"><path fill="#302E81" d="M0 .071h14.27v25H0v-25z"/></g><g clip-path="url(#d)" transform="translate(34.33 -.071)"><path fill="#302E81" d="M0 .071h13.477v25H0v-25z"/></g><g clip-path="url(#e)" transform="translate(51.493 -.071)"><path fill="#302E81" d="M0 .071h14.785v25H0v-25z"/></g><g clip-path="url(#f)" transform="translate(68.736 -.071)"><path fill="#302E81" d="M0 .071h13.834v25H0v-25z"/></g><g clip-path="url(#g)" transform="translate(92.598 -.071)"><path fill="#302E81" d="M0 .071h13.834v25H0v-25z"/></g><g clip-path="url(#h)" transform="translate(109.88 -.071)"><path fill="#302E81" d="M0 .071h13.477v25H0v-25z"/></g><g clip-path="url(#i)" transform="translate(126.886 -.071)"><path fill="#302E81" d="M0 .071h13.477v25H0v-25z"/></g><g clip-path="url(#j)" transform="translate(144.05 -.071)"><path fill="#302E81" d="M0 .071h14.666v25H0v-25z"/></g></g></svg>