<svg xmlns="http://www.w3.org/2000/svg" width="159" height="25"><defs><clipPath id="a"><path d="M159 0v25H0V0h159Z"/></clipPath><clipPath id="b"><path d="M8.98 0c2.887 0 4.33 1.311 4.33 3.933v4.371H8.701V4.41c0-.424-.08-.708-.238-.854-.159-.146-.45-.219-.874-.219H5.72c-.423 0-.715.073-.874.219-.159.146-.238.43-.238.854V20.7c0 .424.08.709.238.855.16.145.45.218.874.218H7.59c.424 0 .715-.073.874-.218.159-.146.238-.43.238-.855v-3.814h4.61v4.291c0 2.623-1.444 3.934-4.332 3.934H4.331C1.444 25.11 0 23.8 0 21.177V3.933C0 1.311 1.444 0 4.33 0h4.65Z"/></clipPath><clipPath id="c"><path d="M4.57 0v10.887h5.164V0h4.57v25.071h-4.57V14.383H4.57v10.688H0V0h4.57Z"/></clipPath><clipPath id="d"><path d="M9.178 0c2.887 0 4.33 1.311 4.33 3.933v17.204c0 2.623-1.443 3.934-4.33 3.934H4.331C1.444 25.071 0 23.76 0 21.137V3.933C0 1.311 1.444 0 4.33 0h4.848Zm-1.35 3.496H5.72c-.45 0-.754.073-.913.219-.16.146-.239.43-.239.854v15.933c0 .424.08.708.239.854.159.146.463.219.913.219h2.106c.424 0 .715-.073.874-.219.16-.146.239-.43.239-.854V4.569c0-.424-.08-.708-.239-.854-.159-.146-.45-.219-.874-.219Z"/></clipPath><clipPath id="e"><path d="M9.218 0c2.887 0 4.33 1.311 4.33 3.933v7.43c0 2.172-.966 3.444-2.9 3.815l4.172 9.893H9.893L6.08 15.297h-1.51v9.774H0V0h9.218ZM7.867 3.496H4.569v8.424h3.298c.424 0 .715-.073.874-.219.159-.146.238-.43.238-.854V4.569c0-.424-.079-.708-.238-.854-.159-.146-.45-.219-.874-.219Z"/></clipPath><clipPath id="f"><path d="M9.536 0c2.887 0 4.33 1.311 4.33 3.933v17.204c0 2.623-1.443 3.934-4.33 3.934H0V0h9.536Zm-1.39 3.337H4.568v18.396h3.576c.424 0 .715-.072.874-.218.16-.146.239-.43.239-.854V4.41c0-.425-.08-.71-.239-.855-.159-.146-.45-.219-.874-.219Z"/></clipPath><clipPath id="g"><path d="M9.536 0c2.887 0 4.33 1.311 4.33 3.933v5.404c0 1.669-.556 2.689-1.668 3.06 1.112.37 1.669 1.324 1.669 2.86v5.88c0 2.623-1.444 3.934-4.331 3.934H0V0h9.536ZM8.185 14.065H4.569v7.668h3.616c.45 0 .755-.072.914-.218.159-.146.238-.43.238-.854v-5.523c0-.424-.08-.709-.238-.854-.16-.146-.464-.219-.914-.219Zm0-10.727H4.569v7.39h3.616c.45 0 .755-.073.914-.219.159-.146.238-.43.238-.854V4.41c0-.424-.08-.708-.238-.854-.16-.146-.464-.219-.914-.219Z"/></clipPath><clipPath id="h"><path d="M9.178 0c2.887 0 4.33 1.311 4.33 3.933v17.204c0 2.623-1.443 3.934-4.33 3.934H4.331C1.444 25.071 0 23.76 0 21.137V3.933C0 1.311 1.444 0 4.33 0h4.848Zm-1.35 3.496H5.72c-.45 0-.754.073-.913.219-.16.146-.239.43-.239.854v15.933c0 .424.08.708.239.854.159.146.463.219.913.219h2.106c.424 0 .715-.073.874-.219.16-.146.239-.43.239-.854V4.569c0-.424-.08-.708-.239-.854-.159-.146-.45-.219-.874-.219Z"/></clipPath><clipPath id="i"><path d="M9.178 0c2.887 0 4.33 1.311 4.33 3.933v17.204c0 2.623-1.443 3.934-4.33 3.934H4.331C1.444 25.071 0 23.76 0 21.137V3.933C0 1.311 1.444 0 4.33 0h4.848Zm-1.35 3.496H5.72c-.45 0-.754.073-.913.219-.16.146-.239.43-.239.854v15.933c0 .424.08.708.239.854.159.146.463.219.913.219h2.106c.424 0 .715-.073.874-.219.16-.146.239-.43.239-.854V4.569c0-.424-.08-.708-.239-.854-.159-.146-.45-.219-.874-.219Z"/></clipPath><clipPath id="j"><path d="M14.7 0 9.537 12.476 14.66 25.07H9.734L4.768 12.476 9.774 0h4.927ZM4.57 0v25.071H0V0h4.57Z"/></clipPath></defs><g clip-path="url(#a)"><g clip-path="url(#b)" transform="translate(-.077 -.071)"><path fill="#FFF" d="M.077.071H13.31v25H.077v-25z"/></g><g clip-path="url(#c)" transform="translate(16.451 -.071)"><path fill="#FFF" d="M0 .071h14.304v25H0v-25z"/></g><g clip-path="url(#d)" transform="translate(34.41 -.071)"><path fill="#FFF" d="M0 .071h13.509v25H0v-25z"/></g><g clip-path="url(#e)" transform="translate(51.614 -.071)"><path fill="#FFF" d="M0 .071h14.82v25H0v-25z"/></g><g clip-path="url(#f)" transform="translate(68.898 -.071)"><path fill="#FFF" d="M0 .071h13.867v25H0v-25z"/></g><g clip-path="url(#g)" transform="translate(92.817 -.071)"><path fill="#FFF" d="M0 .071h13.867v25H0v-25z"/></g><g clip-path="url(#h)" transform="translate(110.14 -.071)"><path fill="#FFF" d="M0 .071h13.509v25H0v-25z"/></g><g clip-path="url(#i)" transform="translate(127.185 -.071)"><path fill="#FFF" d="M0 .071h13.509v25H0v-25z"/></g><g clip-path="url(#j)" transform="translate(144.389 -.071)"><path fill="#FFF" d="M0 .071h14.611v25H0v-25z"/></g></g></svg>