<?xml version="1.0" encoding="UTF-8"?>
<svg width="48px" height="48px" viewBox="0 0 48 48" version="1.1" xmlns="http://www.w3.org/2000/svg" xmlns:xlink="http://www.w3.org/1999/xlink">
    <title>icon</title>
    <g id="icon" stroke="none" stroke-width="1" fill="none" fill-rule="evenodd">
        <rect fill="#10B981" x="0" y="0" width="48" height="48"></rect>
        <g id="journal-text" transform="translate(9.000000, 8.000000)" fill="#FFFFFF" fill-rule="nonzero">
            <path d="M10,21 C10,20.4477153 10.4477153,20 11,20 L15,20 C15.5522847,20 16,20.4477153 16,21 C16,21.5522847 15.5522847,22 15,22 L11,22 C10.4477153,22 10,21.5522847 10,21 Z M10,17 C10,16.4477153 10.4477153,16 11,16 L21,16 C21.5522847,16 22,16.4477153 22,17 C22,17.5522847 21.5522847,18 21,18 L11,18 C10.4477153,18 10,17.5522847 10,17 Z M10,13 C10,12.4477153 10.4477153,12 11,12 L21,12 C21.5522847,12 22,12.4477153 22,13 C22,13.5522847 21.5522847,14 21,14 L11,14 C10.4477153,14 10,13.5522847 10,13 Z M10,9 C10,8.44771525 10.4477153,8 11,8 L21,8 C21.5522847,8 22,8.44771525 22,9 C22,9.55228475 21.5522847,10 21,10 L11,10 C10.4477153,10 10,9.55228475 10,9 Z" id="Shape"></path>
            <path d="M6,0 L26,0 C28.209139,0 30,1.790861 30,4 L30,28 C30,30.209139 28.209139,32 26,32 L6,32 C3.790861,32 2,30.209139 2,28 L2,26 L4,26 L4,28 C4,29.1045695 4.8954305,30 6,30 L26,30 C27.1045695,30 28,29.1045695 28,28 L28,4 C28,2.8954305 27.1045695,2 26,2 L6,2 C4.8954305,2 4,2.8954305 4,4 L4,6 L2,6 L2,4 C2,1.790861 3.790861,0 6,0 Z" id="Path"></path>
            <path d="M2,10 L2,9 C2,8.44771525 2.44771525,8 3,8 C3.55228475,8 4,8.44771525 4,9 L4,10 L5,10 C5.55228475,10 6,10.4477153 6,11 C6,11.5522847 5.55228475,12 5,12 L1,12 C0.44771525,12 0,11.5522847 0,11 C0,10.4477153 0.44771525,10 1,10 L2,10 Z M2,16 L2,15 C2,14.4477153 2.44771525,14 3,14 C3.55228475,14 4,14.4477153 4,15 L4,16 L5,16 C5.55228475,16 6,16.4477153 6,17 C6,17.5522847 5.55228475,18 5,18 L1,18 C0.44771525,18 0,17.5522847 0,17 C0,16.4477153 0.44771525,16 1,16 L2,16 Z M2,22 L2,21 C2,20.4477153 2.44771525,20 3,20 C3.55228475,20 4,20.4477153 4,21 L4,22 L5,22 C5.55228475,22 6,22.4477153 6,23 C6,23.5522847 5.55228475,24 5,24 L1,24 C0.44771525,24 0,23.5522847 0,23 C0,22.4477153 0.44771525,22 1,22 L2,22 Z" id="Shape"></path>
        </g>
    </g>
</svg>