<svg width="246" height="24" xmlns="http://www.w3.org/2000/svg"><g fill="none" fill-rule="evenodd"><path fill="#262829" d="M0 0h246v24H0z"/><path d="M10.458-.112h14.357c.253 0 .458.28.458.624v21.66a.755.755 0 0 1-.134.442.408.408 0 0 1-.324.183H10.458a.408.408 0 0 1-.324-.183.755.755 0 0 1-.134-.442V.512c0-.345.205-.624.458-.624zM10 .918h15.273M10 6.188h15.273M10 11.915h15.273M10 17.642h15.273M13.055-.112v22.909m3.054-22.91v22.91m3.055-22.91v22.91m3.054-22.91v22.91" stroke="#10B981" stroke-width="1.069"/><g fill="#10B981"><path d="M28.872 16.433c1.07-1.492 1.681-3.212 1.681-5.041 0-1.87-.637-3.626-1.753-5.14.962 5.14.962 5.14.072 10.181zM32.158 19.342c1.683-2.345 2.642-5.047 2.642-7.922 0-2.94-1.002-5.697-2.755-8.078 1.511 8.078 1.511 8.078.113 16z"/></g><g fill="#10B981"><path d="M6.383 16.433C5.312 14.941 4.7 13.221 4.7 11.392c0-1.87.638-3.626 1.754-5.14-.962 5.14-.962 5.14-.072 10.181zM3.097 19.342C1.413 16.997.455 14.295.455 11.42c0-2.94 1.001-5.697 2.755-8.078-1.512 8.078-1.512 8.078-.113 16z"/></g><path d="M59.633 21.714c1.68 0 3.164-.294 4.452-.882 1.288-.588 2.37-1.386 3.248-2.394l-3.332-3.136c-.43.597-.999 1.082-1.708 1.456-.71.373-1.54.56-2.492.56-.821 0-1.577-.15-2.268-.448a5.233 5.233 0 0 1-1.778-1.246 5.738 5.738 0 0 1-1.162-1.918c-.28-.747-.42-1.568-.42-2.464 0-.878.14-1.685.42-2.422a5.804 5.804 0 0 1 1.176-1.918 5.419 5.419 0 0 1 1.806-1.274c.7-.308 1.47-.462 2.31-.462.765 0 1.512.15 2.24.448a4.02 4.02 0 0 1 1.764 1.372l3.248-3.248c-.84-.952-1.937-1.676-3.29-2.17a11.946 11.946 0 0 0-4.13-.742c-1.512 0-2.921.242-4.228.728a10.107 10.107 0 0 0-3.416 2.086c-.97.905-1.731 2.002-2.282 3.29-.55 1.288-.826 2.725-.826 4.312 0 1.55.27 2.968.812 4.256a9.92 9.92 0 0 0 2.24 3.318 9.965 9.965 0 0 0 3.374 2.142c1.297.504 2.711.756 4.242.756zm14.532-.532v-8.288h7.728v8.288h4.788V1.358h-4.788v7.504h-7.728V1.358h-4.788v19.824h4.788zm26.46.532c1.55 0 2.987-.252 4.312-.756 1.325-.504 2.469-1.218 3.43-2.142.961-.924 1.713-2.035 2.254-3.332.541-1.298.812-2.73.812-4.298 0-1.587-.27-3.02-.812-4.298-.541-1.279-1.293-2.366-2.254-3.262-.961-.896-2.105-1.587-3.43-2.072-1.325-.486-2.763-.728-4.312-.728-1.55 0-2.982.242-4.298.728-1.316.485-2.455 1.176-3.416 2.072-.961.896-1.713 1.983-2.254 3.262-.541 1.278-.812 2.711-.812 4.298 0 1.568.27 3 .812 4.298.541 1.297 1.293 2.408 2.254 3.332.961.924 2.1 1.638 3.416 2.142 1.316.504 2.749.756 4.298.756zm0-4.368c-.84 0-1.605-.154-2.296-.462a5.306 5.306 0 0 1-1.778-1.274 5.869 5.869 0 0 1-1.162-1.946 7.082 7.082 0 0 1-.42-2.478c0-.859.135-1.662.406-2.408a5.45 5.45 0 0 1 1.162-1.918A5.559 5.559 0 0 1 98.33 5.6c.69-.308 1.456-.462 2.296-.462.84 0 1.61.154 2.31.462.7.308 1.297.728 1.792 1.26a5.738 5.738 0 0 1 1.162 1.918c.28.746.42 1.55.42 2.408 0 .896-.14 1.722-.42 2.478a5.746 5.746 0 0 1-1.176 1.946 5.457 5.457 0 0 1-1.792 1.274c-.69.308-1.456.462-2.296.462zm18.676 3.836v-7.868h1.624l4.284 7.868h5.6l-5.18-8.484c1.288-.392 2.296-1.046 3.024-1.96.728-.915 1.092-2.044 1.092-3.388 0-1.139-.215-2.09-.644-2.856a5.199 5.199 0 0 0-1.722-1.848 7.243 7.243 0 0 0-2.436-.994 13.13 13.13 0 0 0-2.786-.294h-7.56v19.824h4.704zm2.24-11.34h-2.268v-4.62h2.548c.355 0 .723.028 1.106.084.383.056.728.163 1.036.322.308.158.56.382.756.672.196.29.294.667.294 1.134 0 .504-.107.914-.322 1.232-.215.317-.49.56-.826.728-.336.168-.71.284-1.12.35-.41.065-.812.098-1.204.098zm19.012 11.34c1.363 0 2.707-.192 4.032-.574a10.623 10.623 0 0 0 3.57-1.792c1.055-.812 1.904-1.848 2.548-3.108.644-1.26.966-2.758.966-4.494 0-1.867-.327-3.435-.98-4.704-.653-1.27-1.512-2.282-2.576-3.038-1.064-.756-2.277-1.298-3.64-1.624a17.715 17.715 0 0 0-4.144-.49h-7.168v19.824h7.392zm-.448-4.144h-2.268V5.446h2.38c.821 0 1.62.093 2.394.28.775.186 1.465.5 2.072.938.607.438 1.092 1.026 1.456 1.764.364.737.546 1.666.546 2.786 0 1.101-.182 2.025-.546 2.772-.364.746-.85 1.344-1.456 1.792a5.858 5.858 0 0 1-2.1.966c-.793.196-1.62.294-2.478.294zm29.624 4.144c.952 0 1.88-.098 2.786-.294a7.443 7.443 0 0 0 2.422-.966 5.111 5.111 0 0 0 1.708-1.778c.43-.738.644-1.648.644-2.73 0-.654-.107-1.242-.322-1.764a4.517 4.517 0 0 0-.868-1.372 4.573 4.573 0 0 0-1.288-.966 5.43 5.43 0 0 0-1.582-.518v-.056c.97-.318 1.755-.836 2.352-1.554.597-.719.896-1.629.896-2.73 0-1.008-.205-1.839-.616-2.492a4.622 4.622 0 0 0-1.596-1.554 6.954 6.954 0 0 0-2.184-.812 12.114 12.114 0 0 0-2.352-.238h-7.896v19.824h7.896zm-.7-11.928h-2.576V5.166h2.352c1.008 0 1.769.154 2.282.462.513.308.77.798.77 1.47 0 .71-.247 1.246-.742 1.61-.495.364-1.19.546-2.086.546zm.112 8.064h-2.688v-4.536h2.66c1.027 0 1.848.158 2.464.476.616.317.924.886.924 1.708 0 .485-.103.882-.308 1.19a2.098 2.098 0 0 1-.798.714c-.327.168-.69.284-1.092.35a7.232 7.232 0 0 1-1.162.098zm21.168 4.396c1.55 0 2.987-.252 4.312-.756 1.325-.504 2.469-1.218 3.43-2.142.961-.924 1.713-2.035 2.254-3.332.541-1.298.812-2.73.812-4.298 0-1.587-.27-3.02-.812-4.298-.541-1.279-1.293-2.366-2.254-3.262-.961-.896-2.105-1.587-3.43-2.072-1.325-.486-2.763-.728-4.312-.728-1.55 0-2.982.242-4.298.728-1.316.485-2.455 1.176-3.416 2.072-.961.896-1.713 1.983-2.254 3.262-.541 1.278-.812 2.711-.812 4.298 0 1.568.27 3 .812 4.298.541 1.297 1.293 2.408 2.254 3.332.961.924 2.1 1.638 3.416 2.142 1.316.504 2.749.756 4.298.756zm0-4.368c-.84 0-1.605-.154-2.296-.462a5.306 5.306 0 0 1-1.778-1.274 5.869 5.869 0 0 1-1.162-1.946 7.082 7.082 0 0 1-.42-2.478c0-.859.135-1.662.406-2.408a5.45 5.45 0 0 1 1.162-1.918 5.559 5.559 0 0 1 1.792-1.26c.69-.308 1.456-.462 2.296-.462.84 0 1.61.154 2.31.462.7.308 1.297.728 1.792 1.26a5.738 5.738 0 0 1 1.162 1.918c.28.746.42 1.55.42 2.408 0 .896-.14 1.722-.42 2.478a5.746 5.746 0 0 1-1.176 1.946 5.457 5.457 0 0 1-1.792 1.274c-.69.308-1.456.462-2.296.462zm23.828 4.368c1.55 0 2.987-.252 4.312-.756 1.325-.504 2.469-1.218 3.43-2.142.961-.924 1.713-2.035 2.254-3.332.541-1.298.812-2.73.812-4.298 0-1.587-.27-3.02-.812-4.298-.541-1.279-1.293-2.366-2.254-3.262-.961-.896-2.105-1.587-3.43-2.072-1.325-.486-2.763-.728-4.312-.728-1.55 0-2.982.242-4.298.728-1.316.485-2.455 1.176-3.416 2.072-.961.896-1.713 1.983-2.254 3.262-.541 1.278-.812 2.711-.812 4.298 0 1.568.27 3 .812 4.298.541 1.297 1.293 2.408 2.254 3.332.961.924 2.1 1.638 3.416 2.142 1.316.504 2.749.756 4.298.756zm0-4.368c-.84 0-1.605-.154-2.296-.462a5.306 5.306 0 0 1-1.778-1.274 5.869 5.869 0 0 1-1.162-1.946 7.082 7.082 0 0 1-.42-2.478c0-.859.135-1.662.406-2.408a5.45 5.45 0 0 1 1.162-1.918 5.559 5.559 0 0 1 1.792-1.26c.69-.308 1.456-.462 2.296-.462.84 0 1.61.154 2.31.462.7.308 1.297.728 1.792 1.26a5.738 5.738 0 0 1 1.162 1.918c.28.746.42 1.55.42 2.408 0 .896-.14 1.722-.42 2.478a5.746 5.746 0 0 1-1.176 1.946 5.457 5.457 0 0 1-1.792 1.274c-.69.308-1.456.462-2.296.462zm18.676 3.836v-9.128h.056l7.364 9.128h6.244l-9.044-10.696 8.54-9.128h-5.992l-7.084 8.064h-.084V1.358h-4.704v19.824h4.704z" fill="#FEFEFE" fill-rule="nonzero"/></g></svg>