<svg width="180" height="180" xmlns="http://www.w3.org/2000/svg"><path d="M90.157 2c3.757 0 7.543.086 11.314.284v112.072c-5.181 1.553-8.957 6.358-8.957 12.044 0 5.687 3.776 10.492 8.957 12.045v37.276C97.699 177.2 93.914 178 90.157 178c-4.174 0-8.384-.986-12.571-2.799v-72.998c5.019-1.65 8.643-6.374 8.643-11.945 0-5.571-3.624-10.296-8.643-11.946V2.364A208.38 208.38 0 0 1 90.157 2Zm42.744 5.518-.001 34.424c-5.181 1.553-8.957 6.357-8.957 12.044s3.776 10.491 8.957 12.044v82.011c-7.427 10.006-15.548 18.315-23.886 23.624v-33.32c5.02-1.649 8.643-6.374 8.643-11.945 0-5.57-3.623-10.295-8.642-11.945V2.868c8.338.816 16.459 2.274 23.886 4.65ZM70.043 2.986v75.228c-5.182 1.552-8.957 6.357-8.957 12.044 0 5.686 3.775 10.491 8.957 12.044v68.75c-9.598-6.383-18.882-16.691-27.124-28.927C24.596 114.92 11.43 78.19 11.43 53.89c0-24.301 13.168-37.737 31.491-44.81 8.242-3.182 17.525-5.076 27.123-6.094ZM168.57 53.89c0 22.786-11.578 56.503-28.128 83.045V65.931c5.02-1.65 8.643-6.374 8.643-11.945 0-5.57-3.624-10.296-8.643-11.945V10.37c16.55 7.348 28.128 20.57 28.128 43.519Z" fill="#312E81" fill-rule="nonzero"/></svg>