<svg width="24" height="25" xmlns="http://www.w3.org/2000/svg"><path d="M12.442-.094c.492 0 .987.013 1.481.04v15.92c-.679.221-1.172.903-1.172 1.71 0 .808.493 1.49 1.171 1.711l.001 5.295c-.494.21-.99.324-1.481.324-.547 0-1.098-.14-1.646-.397v-10.37c.657-.234 1.132-.905 1.132-1.696 0-.792-.475-1.463-1.132-1.697V-.04l.271-.018c.459-.025.919-.036 1.375-.036ZM14.91.03h-.012c1.096.115 2.164.322 3.14.661v4.89c-.679.22-1.173.903-1.173 1.71 0 .808.494 1.49 1.172 1.711l.001 11.649c-.972 1.422-2.036 2.602-3.128 3.357l.001-4.734c.657-.234 1.131-.905 1.131-1.696 0-.791-.474-1.462-1.13-1.697L14.91.03Zm-5.1.017-.002 10.686c-.678.221-1.172.903-1.172 1.71 0 .808.494 1.49 1.172 1.711v9.766c-1.256-.906-2.471-2.37-3.55-4.109C3.86 15.946 2.136 10.73 2.136 7.277S3.86 1.917 6.258.912C7.338.46 8.553.19 9.81.046Zm12.897 7.23c0 3.237-1.515 8.026-3.682 11.796V8.987c.657-.234 1.131-.905 1.131-1.696 0-.792-.474-1.463-1.131-1.697V1.096c2.167 1.043 3.682 2.921 3.682 6.18Z" fill="#FFF"/></svg>