<svg width="24" height="25" xmlns="http://www.w3.org/2000/svg"><path d="M12.318-.094c.534 0 1.071.013 1.607.04v15.027a1.786 1.786 0 0 0 0 3.422v6.187a4.39 4.39 0 0 1-1.607.324c-.593 0-1.19-.14-1.785-.397V13.247a1.786 1.786 0 0 0 0-3.394L10.532-.04l.294-.018c.498-.025.997-.036 1.492-.036Zm2.678.123h-.013c1.19.115 2.348.322 3.407.661l-.001 3.997a1.786 1.786 0 0 0 0 3.421v12.543c-1.055 1.421-2.208 2.602-3.393 3.356V18.38a1.786 1.786 0 0 0 0-3.394V.03ZM9.46.046V9.84a1.786 1.786 0 0 0 0 3.422V23.92c-1.363-.906-2.682-2.37-3.852-4.109-2.603-3.864-4.473-9.081-4.473-12.533s1.87-5.36 4.473-6.365C6.779.46 8.098.19 9.46.046Zm13.995 7.23c0 3.237-1.644 8.026-3.995 11.796V8.094a1.786 1.786 0 0 0 0-3.393V1.095c2.35 1.044 3.995 2.922 3.995 6.182Z" fill="#FFF"/></svg>