<svg width="158" height="176" xmlns="http://www.w3.org/2000/svg"><path d="M79.158 0c3.777 0 7.583.086 11.375.284v112.073c-5.209 1.552-9.005 6.357-9.005 12.043 0 5.687 3.796 10.492 9.005 12.044v37.276c-3.791 1.481-7.597 2.28-11.375 2.28-4.197 0-8.43-.987-12.64-2.8v-72.997c5.046-1.65 8.69-6.374 8.69-11.945 0-5.571-3.644-10.296-8.69-11.946L66.517.364C70.727.11 74.96 0 79.158 0Zm42.976 5.518v34.424c-5.21 1.553-9.006 6.358-9.006 12.044 0 5.686 3.796 10.491 9.005 12.044v82.012c-7.467 10.006-15.632 18.314-24.015 23.623v-33.32c5.046-1.649 8.69-6.373 8.69-11.945 0-5.57-3.644-10.295-8.69-11.945V.868c8.384.816 16.548 2.274 24.016 4.65ZM58.933.987v75.227c-5.209 1.553-9.005 6.357-9.005 12.044 0 5.686 3.796 10.49 9.005 12.044v68.75c-9.65-6.384-18.984-16.692-27.27-28.927C13.24 112.92 0 76.19 0 51.89 0 27.589 13.24 14.153 31.664 7.08 39.95 3.898 49.283 2.004 58.933.987ZM158 51.89c0 22.786-11.642 56.504-28.282 83.046V63.931c5.046-1.65 8.69-6.374 8.69-11.945 0-5.571-3.644-10.296-8.69-11.945V8.37C146.358 15.72 158 28.941 158 51.89Z" fill="#FFF" fill-rule="nonzero"/></svg>