<svg width="206" height="20" xmlns="http://www.w3.org/2000/svg"><path d="M9.185 20c4.761 0 8.083-2.733 8.54-7.046h-3.954c-.43 2.29-2.165 3.697-4.572 3.697-3.107 0-5.057-2.545-5.057-6.671 0-4.072 1.977-6.631 5.043-6.631 2.367 0 4.196 1.554 4.573 3.925h3.954C17.402 2.947 13.852 0 9.185 0 3.564 0 0 3.764 0 9.993 0 16.236 3.537 20 9.185 20Zm30.91-.335V.335h-4.061v7.85h-8.741V.335H23.23v19.33h4.062V11.52h8.741v8.145zM55.083 0c-5.756 0-9.36 3.845-9.36 10.007 0 6.148 3.604 9.993 9.36 9.993 5.742 0 9.36-3.845 9.36-9.993C64.443 3.845 60.825 0 55.083 0Zm0 3.376c3.173 0 5.204 2.572 5.204 6.63 0 4.046-2.03 6.605-5.204 6.605-3.188 0-5.218-2.559-5.218-6.604 0-4.06 2.044-6.631 5.218-6.631Zm19.035.12h3.456c2.017 0 3.281 1.206 3.281 3.081 0 1.916-1.196 3.081-3.24 3.081h-3.497V3.496Zm0 9.096h3.254l3.618 7.073h4.6L81.5 11.99c2.232-.87 3.523-3.014 3.523-5.492 0-3.818-2.555-6.162-7.02-6.162h-7.948v19.33h4.062v-7.073ZM90.692.335v19.33h7.41c5.823 0 9.252-3.603 9.252-9.739 0-6.135-3.429-9.591-9.252-9.591h-7.41Zm4.061 3.335h2.865c3.577 0 5.594 2.224 5.594 6.27 0 4.18-1.963 6.376-5.594 6.376h-2.865V3.67Zm35.273 15.995c4.142 0 6.711-2.13 6.711-5.532 0-2.559-1.936-4.475-4.572-4.676V9.35c2.057-.308 3.644-2.076 3.644-4.193 0-2.96-2.286-4.822-5.93-4.822h-8.446v19.33h8.593ZM125.494 3.35h3.335c1.897 0 2.986.884 2.986 2.438 0 1.634-1.237 2.585-3.402 2.585h-2.919V3.35Zm0 13.302v-5.613h3.403c2.394 0 3.698.965 3.698 2.773 0 1.849-1.264 2.84-3.604 2.84h-3.497ZM150.81 0c-5.756 0-9.36 3.845-9.36 10.007 0 6.148 3.604 9.993 9.36 9.993 5.742 0 9.36-3.845 9.36-9.993C160.17 3.845 156.552 0 150.81 0Zm0 3.376c3.174 0 5.204 2.572 5.204 6.63 0 4.046-2.03 6.605-5.204 6.605-3.187 0-5.218-2.559-5.218-6.604 0-4.06 2.044-6.631 5.218-6.631ZM174.538 0c-5.755 0-9.36 3.845-9.36 10.007 0 6.148 3.605 9.993 9.36 9.993 5.743 0 9.36-3.845 9.36-9.993 0-6.162-3.617-10.007-9.36-10.007Zm0 3.376c3.174 0 5.205 2.572 5.205 6.63 0 4.046-2.03 6.605-5.205 6.605-3.187 0-5.218-2.559-5.218-6.604 0-4.06 2.045-6.631 5.218-6.631Zm19.036 16.289v-5.907l1.815-2.17 5.756 8.077H206l-7.68-10.757 7.182-8.573h-4.518l-7.29 8.814h-.12V.335h-4.062v19.33z" fill="#FFF"/></svg>