<svg width="824" height="81" xmlns="http://www.w3.org/2000/svg"><path d="M37.145 80.343c19.014 0 32.28-10.957 34.106-28.252h-15.79c-1.72 9.184-8.648 14.824-18.262 14.824-12.407 0-20.196-10.205-20.196-26.748 0-16.328 7.896-26.587 20.142-26.587 9.453 0 16.758 6.23 18.262 15.737h15.79C69.963 11.97 55.784.152 37.146.152 14.694.152.46 15.245.46 40.221c0 25.029 14.126 40.122 36.685 40.122ZM160.595 79V1.495h-16.22V32.97h-34.913V1.495h-16.22V79h16.22V46.344h34.913V79zM220.452.152c-22.989 0-37.383 15.415-37.383 40.122 0 24.654 14.394 40.069 37.383 40.069 22.934 0 37.382-15.415 37.382-40.069 0-24.707-14.448-40.122-37.382-40.122Zm0 13.536c12.675 0 20.786 10.312 20.786 26.586 0 16.221-8.11 26.48-20.786 26.48-12.73 0-20.84-10.259-20.84-26.48 0-16.274 8.164-26.586 20.84-26.586Zm76.023.482h13.804c8.056 0 13.105 4.835 13.105 12.354 0 7.681-4.78 12.354-12.944 12.354h-13.965V14.17Zm0 36.47h12.998L323.921 79h18.37l-16.329-30.776c8.916-3.492 14.073-12.085 14.073-22.022 0-15.307-10.205-24.707-28.037-24.707h-31.744V79h16.221V50.64ZM362.67 1.495V79h29.594c23.257 0 36.953-14.448 36.953-39.048S415.521 1.495 392.264 1.495H362.67Zm16.22 13.374h11.44c14.288 0 22.344 8.916 22.344 25.137 0 16.758-7.841 25.566-22.343 25.566h-11.44V14.87ZM519.765 79c16.543 0 26.802-8.54 26.802-22.183 0-10.258-7.734-17.94-18.262-18.745v-.43c8.218-1.235 14.556-8.325 14.556-16.81 0-11.871-9.131-19.337-23.687-19.337h-33.73V79h34.321Zm-18.1-65.42h13.32c7.573 0 11.924 3.545 11.924 9.775 0 6.553-4.942 10.367-13.59 10.367h-11.654V13.58Zm0 53.335V44.41h13.588c9.561 0 14.77 3.867 14.77 11.118 0 7.412-5.048 11.387-14.394 11.387h-13.964ZM602.771.152c-22.988 0-37.383 15.415-37.383 40.122 0 24.654 14.395 40.069 37.383 40.069 22.935 0 37.383-15.415 37.383-40.069 0-24.707-14.448-40.122-37.383-40.122Zm0 13.536c12.676 0 20.786 10.312 20.786 26.586 0 16.221-8.11 26.48-20.786 26.48-12.73 0-20.84-10.259-20.84-26.48 0-16.274 8.164-26.586 20.84-26.586ZM697.54.152c-22.989 0-37.383 15.415-37.383 40.122 0 24.654 14.394 40.069 37.383 40.069 22.934 0 37.382-15.415 37.382-40.069 0-24.707-14.448-40.122-37.382-40.122Zm0 13.536c12.675 0 20.786 10.312 20.786 26.586 0 16.221-8.11 26.48-20.786 26.48-12.73 0-20.84-10.259-20.84-26.48 0-16.274 8.164-26.586 20.84-26.586ZM773.563 79V55.313l7.251-8.7L803.802 79h19.39l-30.67-43.13 28.683-34.375h-18.047l-29.112 35.342h-.483V1.495h-16.22V79z" fill="#FFF"/></svg>