<?xml version="1.0" standalone="no"?>
<!DOCTYPE svg PUBLIC "-//W3C//DTD SVG 20010904//EN"
 "http://www.w3.org/TR/2001/REC-SVG-20010904/DTD/svg10.dtd">
<svg version="1.0" xmlns="http://www.w3.org/2000/svg"
 width="700.000000pt" height="700.000000pt" viewBox="0 0 700.000000 700.000000"
 preserveAspectRatio="xMidYMid meet">
<metadata>
Created by potrace 1.14, written by Peter Selinger 2001-2017
</metadata>
<g transform="translate(0.000000,700.000000) scale(0.100000,-0.100000)"
fill="#000000" stroke="none">
<path d="M2020 5807 c-41 -13 -97 -36 -125 -52 -78 -45 -187 -160 -224 -235
-54 -111 -63 -158 -68 -367 l-5 -193 151 0 151 0 0 178 0 179 31 61 c32 65 66
99 133 135 l41 22 1540 0 1540 0 51 -27 c62 -33 116 -93 141 -157 17 -43 18
-145 21 -1806 3 -1784 2 -1858 -33 -1926 -26 -50 -76 -99 -129 -127 l-51 -27
-1540 0 -1540 0 -55 31 c-61 34 -121 105 -139 164 -6 21 -11 110 -11 209 l0
171 -151 0 -152 0 5 -197 c5 -164 9 -209 27 -263 61 -191 224 -346 416 -395
87 -22 3121 -23 3205 0 156 41 308 166 375 306 69 145 65 24 65 2009 0 1989 4
1867 -66 2010 -49 99 -161 213 -254 258 -136 66 -28 62 -1730 61 l-1545 0 -75
-22z"/>
<path d="M1705 4660 c-42 -13 -85 -60 -96 -106 -4 -22 -9 -69 -9 -105 l0 -66
-92 -7 c-137 -9 -193 -52 -193 -146 0 -52 19 -87 69 -124 26 -20 40 -21 366
-21 326 0 340 1 366 21 50 37 69 72 69 124 0 94 -56 137 -192 146 l-91 7 -4
93 c-3 74 -8 99 -24 121 -43 58 -107 81 -169 63z"/>
<path d="M2875 4660 c-64 -19 -110 -89 -102 -153 6 -44 29 -80 71 -111 27 -21
35 -21 799 -21 742 0 773 1 804 19 39 24 73 83 73 128 0 46 -31 99 -71 123
-33 19 -54 20 -789 22 -420 1 -768 -3 -785 -7z"/>
<path d="M2839 4057 c-92 -61 -89 -189 7 -244 l39 -23 760 0 c721 0 762 1 795
19 47 25 71 60 77 113 6 50 -10 89 -52 128 l-27 25 -782 3 -783 2 -34 -23z"/>
<path d="M1680 3771 c-55 -29 -74 -71 -78 -178 l-4 -93 -87 0 c-107 0 -146
-17 -179 -81 -27 -51 -24 -104 9 -151 41 -57 47 -58 411 -58 317 0 335 1 366
20 42 26 76 99 68 144 -17 91 -73 126 -199 126 l-85 0 -4 93 c-3 74 -8 100
-26 129 -40 64 -124 86 -192 49z"/>
<path d="M2854 3486 c-69 -30 -102 -128 -67 -196 10 -19 33 -45 52 -57 l34
-23 771 0 c752 0 772 1 804 20 50 31 74 76 69 133 -5 57 -30 95 -78 119 -31
17 -90 18 -794 18 -616 -1 -766 -3 -791 -14z"/>
<path d="M1705 2910 c-42 -13 -85 -60 -96 -106 -4 -22 -9 -69 -9 -105 l0 -66
-92 -7 c-137 -9 -193 -52 -193 -146 0 -52 19 -87 69 -124 26 -20 40 -21 366
-21 326 0 340 1 366 21 50 37 69 72 69 124 0 94 -56 137 -192 146 l-91 7 -4
93 c-3 74 -8 99 -24 121 -43 58 -107 81 -169 63z"/>
<path d="M2875 2909 c-64 -18 -111 -88 -102 -152 6 -44 29 -80 71 -111 26 -20
40 -21 359 -21 315 0 334 1 367 20 48 28 84 100 74 150 -9 49 -56 102 -102
115 -45 12 -624 12 -667 -1z"/>
</g>
</svg>
