<svg width="24" height="25" xmlns="http://www.w3.org/2000/svg"><g fill="currentColor" fill-rule="nonzero"><path d="m14.74 19.5 1.633-.365v-4.523l2.879-.698v4.447l1.633-.365v-4.48l1.74-.43v-1.524l-1.74.43V7.393l1.74-.43V5.353l-1.74.43V1.216l-1.633.365V6.18l-2.879.698V2.355l-1.633.366v4.554l-1.74.43v1.611l1.74-.43v4.598l-1.74.43v1.525l1.74-.43V19.5zm1.633-6.413V8.489l2.879-.698v4.598l-2.879.698zM3.59 23.744c2.524-.462 5.5-2.535 5.5-5.887 0-1.826-1.096-3.437-3.18-3.437-1.01 0-1.955.526-2.213 1.096V9.027L2 9.35v14.072l1.59.322zm.107-1.515v-3.92c0-1.44.946-2.3 1.87-2.3 1.01 0 1.783.86 1.783 2.106 0 2.202-1.902 3.728-3.653 4.114z"/></g></svg>
