<svg viewBox="0 0 24 24" width="24" height="24" xmlns="http://www.w3.org/2000/svg"><path d="M15.633.44c-.589 0-1.065.463-1.065 1.034V8.77c0 1.3-1.085 2.353-2.426 2.354-1.337 0-2.426-1.056-2.426-2.354V1.474C9.716.904 9.24.44 8.652.44c-.588 0-1.065.462-1.065 1.033V8.77c0 2.081 1.491 3.83 3.49 4.296v7a2.04 2.04 0 0 0-1.049 1.773c0 1.133.947 2.05 2.114 2.05 1.168 0 2.114-.917 2.114-2.05a2.04 2.04 0 0 0-1.05-1.772v-6.999c1.986-.46 3.491-2.195 3.491-4.298V1.474c0-.57-.476-1.033-1.064-1.033z" fill="currentColor" fill-rule="nonzero"/></svg>
